<mxfile host="Electron" modified="2024-07-11T05:10:08.840Z" agent="Mozilla/5.0 (Windows NT 10.0; Win64; x64) AppleWebKit/537.36 (KHTML, like Gecko) draw.io/24.6.4 Chrome/124.0.6367.207 Electron/30.0.6 Safari/537.36" etag="GK3VknNEjIfPRRHHOJWn" version="24.6.4" type="device">
  <diagram name="Page-1" id="vyDEOIfTp1MfRFxhyTMA">
    <mxGraphModel dx="1098" dy="820" grid="1" gridSize="10" guides="1" tooltips="1" connect="1" arrows="1" fold="1" page="1" pageScale="1" pageWidth="827" pageHeight="1169" math="0" shadow="0">
      <root>
        <mxCell id="0" />
        <mxCell id="1" parent="0" />
        <mxCell id="cYqk6q7CBLfKZrdG0vhf-9" style="edgeStyle=orthogonalEdgeStyle;rounded=0;orthogonalLoop=1;jettySize=auto;html=1;entryX=0;entryY=0.5;entryDx=0;entryDy=0;startArrow=classic;startFill=1;" edge="1" parent="1" source="cYqk6q7CBLfKZrdG0vhf-1" target="cYqk6q7CBLfKZrdG0vhf-3">
          <mxGeometry relative="1" as="geometry" />
        </mxCell>
        <mxCell id="cYqk6q7CBLfKZrdG0vhf-22" style="edgeStyle=orthogonalEdgeStyle;rounded=0;orthogonalLoop=1;jettySize=auto;html=1;exitX=0.75;exitY=0;exitDx=0;exitDy=0;entryX=0;entryY=0.5;entryDx=0;entryDy=0;dashed=1;" edge="1" parent="1" source="cYqk6q7CBLfKZrdG0vhf-1" target="cYqk6q7CBLfKZrdG0vhf-16">
          <mxGeometry relative="1" as="geometry" />
        </mxCell>
        <mxCell id="cYqk6q7CBLfKZrdG0vhf-1" value="controller" style="rounded=0;whiteSpace=wrap;html=1;" vertex="1" parent="1">
          <mxGeometry x="114" y="330" width="120" height="60" as="geometry" />
        </mxCell>
        <mxCell id="cYqk6q7CBLfKZrdG0vhf-10" style="edgeStyle=orthogonalEdgeStyle;rounded=0;orthogonalLoop=1;jettySize=auto;html=1;entryX=0;entryY=0.5;entryDx=0;entryDy=0;startArrow=classic;startFill=1;" edge="1" parent="1" source="cYqk6q7CBLfKZrdG0vhf-3" target="cYqk6q7CBLfKZrdG0vhf-4">
          <mxGeometry relative="1" as="geometry" />
        </mxCell>
        <mxCell id="cYqk6q7CBLfKZrdG0vhf-3" value="usecase" style="rounded=0;whiteSpace=wrap;html=1;" vertex="1" parent="1">
          <mxGeometry x="280" y="330" width="120" height="60" as="geometry" />
        </mxCell>
        <mxCell id="cYqk6q7CBLfKZrdG0vhf-15" style="edgeStyle=orthogonalEdgeStyle;rounded=0;orthogonalLoop=1;jettySize=auto;html=1;exitX=1;exitY=0.5;exitDx=0;exitDy=0;entryX=0;entryY=0.5;entryDx=0;entryDy=0;startArrow=classic;startFill=1;" edge="1" parent="1" source="cYqk6q7CBLfKZrdG0vhf-4" target="cYqk6q7CBLfKZrdG0vhf-5">
          <mxGeometry relative="1" as="geometry" />
        </mxCell>
        <mxCell id="cYqk6q7CBLfKZrdG0vhf-25" style="edgeStyle=orthogonalEdgeStyle;rounded=0;orthogonalLoop=1;jettySize=auto;html=1;exitX=0.25;exitY=1;exitDx=0;exitDy=0;entryX=1;entryY=0.5;entryDx=0;entryDy=0;dashed=1;" edge="1" parent="1" source="cYqk6q7CBLfKZrdG0vhf-4" target="cYqk6q7CBLfKZrdG0vhf-17">
          <mxGeometry relative="1" as="geometry" />
        </mxCell>
        <mxCell id="cYqk6q7CBLfKZrdG0vhf-33" style="edgeStyle=orthogonalEdgeStyle;rounded=0;orthogonalLoop=1;jettySize=auto;html=1;exitX=0.75;exitY=1;exitDx=0;exitDy=0;entryX=0;entryY=0.5;entryDx=0;entryDy=0;dashed=1;" edge="1" parent="1" source="cYqk6q7CBLfKZrdG0vhf-4" target="cYqk6q7CBLfKZrdG0vhf-20">
          <mxGeometry relative="1" as="geometry" />
        </mxCell>
        <mxCell id="cYqk6q7CBLfKZrdG0vhf-4" value="service" style="rounded=0;whiteSpace=wrap;html=1;" vertex="1" parent="1">
          <mxGeometry x="444" y="330" width="120" height="60" as="geometry" />
        </mxCell>
        <mxCell id="cYqk6q7CBLfKZrdG0vhf-36" style="edgeStyle=orthogonalEdgeStyle;rounded=0;orthogonalLoop=1;jettySize=auto;html=1;exitX=0.5;exitY=0;exitDx=0;exitDy=0;entryX=1;entryY=0.5;entryDx=0;entryDy=0;dashed=1;" edge="1" parent="1" source="cYqk6q7CBLfKZrdG0vhf-5" target="cYqk6q7CBLfKZrdG0vhf-35">
          <mxGeometry relative="1" as="geometry" />
        </mxCell>
        <mxCell id="cYqk6q7CBLfKZrdG0vhf-5" value="repository" style="rounded=0;whiteSpace=wrap;html=1;" vertex="1" parent="1">
          <mxGeometry x="600" y="330" width="120" height="60" as="geometry" />
        </mxCell>
        <mxCell id="cYqk6q7CBLfKZrdG0vhf-14" style="edgeStyle=orthogonalEdgeStyle;rounded=0;orthogonalLoop=1;jettySize=auto;html=1;exitX=0.5;exitY=1;exitDx=0;exitDy=0;entryX=0.5;entryY=0;entryDx=0;entryDy=0;startArrow=classic;startFill=1;" edge="1" parent="1" source="cYqk6q7CBLfKZrdG0vhf-6" target="cYqk6q7CBLfKZrdG0vhf-4">
          <mxGeometry relative="1" as="geometry" />
        </mxCell>
        <mxCell id="cYqk6q7CBLfKZrdG0vhf-6" value="mapper" style="rhombus;whiteSpace=wrap;html=1;" vertex="1" parent="1">
          <mxGeometry x="464" y="160" width="80" height="80" as="geometry" />
        </mxCell>
        <mxCell id="cYqk6q7CBLfKZrdG0vhf-24" style="edgeStyle=orthogonalEdgeStyle;rounded=0;orthogonalLoop=1;jettySize=auto;html=1;exitX=1;exitY=0.5;exitDx=0;exitDy=0;entryX=0.25;entryY=0;entryDx=0;entryDy=0;dashed=1;" edge="1" parent="1" source="cYqk6q7CBLfKZrdG0vhf-16" target="cYqk6q7CBLfKZrdG0vhf-4">
          <mxGeometry relative="1" as="geometry" />
        </mxCell>
        <mxCell id="cYqk6q7CBLfKZrdG0vhf-30" style="edgeStyle=orthogonalEdgeStyle;rounded=0;orthogonalLoop=1;jettySize=auto;html=1;exitX=0.5;exitY=1;exitDx=0;exitDy=0;entryX=0.5;entryY=0;entryDx=0;entryDy=0;dashed=1;" edge="1" parent="1" source="cYqk6q7CBLfKZrdG0vhf-16" target="cYqk6q7CBLfKZrdG0vhf-3">
          <mxGeometry relative="1" as="geometry" />
        </mxCell>
        <mxCell id="cYqk6q7CBLfKZrdG0vhf-16" value="requestDTO" style="ellipse;whiteSpace=wrap;html=1;" vertex="1" parent="1">
          <mxGeometry x="295" y="219" width="90" height="60" as="geometry" />
        </mxCell>
        <mxCell id="cYqk6q7CBLfKZrdG0vhf-28" style="edgeStyle=orthogonalEdgeStyle;rounded=0;orthogonalLoop=1;jettySize=auto;html=1;exitX=0;exitY=0.5;exitDx=0;exitDy=0;entryX=0.75;entryY=1;entryDx=0;entryDy=0;dashed=1;" edge="1" parent="1" source="cYqk6q7CBLfKZrdG0vhf-17" target="cYqk6q7CBLfKZrdG0vhf-1">
          <mxGeometry relative="1" as="geometry" />
        </mxCell>
        <mxCell id="cYqk6q7CBLfKZrdG0vhf-29" style="edgeStyle=orthogonalEdgeStyle;rounded=0;orthogonalLoop=1;jettySize=auto;html=1;exitX=0.5;exitY=0;exitDx=0;exitDy=0;entryX=0.5;entryY=1;entryDx=0;entryDy=0;dashed=1;" edge="1" parent="1" source="cYqk6q7CBLfKZrdG0vhf-17" target="cYqk6q7CBLfKZrdG0vhf-3">
          <mxGeometry relative="1" as="geometry" />
        </mxCell>
        <mxCell id="cYqk6q7CBLfKZrdG0vhf-17" value="responseDTO" style="ellipse;whiteSpace=wrap;html=1;" vertex="1" parent="1">
          <mxGeometry x="295" y="440" width="90" height="60" as="geometry" />
        </mxCell>
        <mxCell id="cYqk6q7CBLfKZrdG0vhf-34" style="edgeStyle=orthogonalEdgeStyle;rounded=0;orthogonalLoop=1;jettySize=auto;html=1;exitX=1;exitY=0.5;exitDx=0;exitDy=0;entryX=0.5;entryY=1;entryDx=0;entryDy=0;dashed=1;" edge="1" parent="1" source="cYqk6q7CBLfKZrdG0vhf-20" target="cYqk6q7CBLfKZrdG0vhf-5">
          <mxGeometry relative="1" as="geometry" />
        </mxCell>
        <mxCell id="cYqk6q7CBLfKZrdG0vhf-20" value="entity" style="ellipse;whiteSpace=wrap;html=1;" vertex="1" parent="1">
          <mxGeometry x="554" y="420" width="79" height="50" as="geometry" />
        </mxCell>
        <mxCell id="cYqk6q7CBLfKZrdG0vhf-37" style="edgeStyle=orthogonalEdgeStyle;rounded=0;orthogonalLoop=1;jettySize=auto;html=1;exitX=0;exitY=0.5;exitDx=0;exitDy=0;entryX=0.75;entryY=0;entryDx=0;entryDy=0;dashed=1;" edge="1" parent="1" source="cYqk6q7CBLfKZrdG0vhf-35" target="cYqk6q7CBLfKZrdG0vhf-4">
          <mxGeometry relative="1" as="geometry" />
        </mxCell>
        <mxCell id="cYqk6q7CBLfKZrdG0vhf-35" value="entity" style="ellipse;whiteSpace=wrap;html=1;" vertex="1" parent="1">
          <mxGeometry x="554" y="250" width="79" height="50" as="geometry" />
        </mxCell>
        <mxCell id="cYqk6q7CBLfKZrdG0vhf-39" style="edgeStyle=orthogonalEdgeStyle;rounded=0;orthogonalLoop=1;jettySize=auto;html=1;entryX=0;entryY=0.5;entryDx=0;entryDy=0;" edge="1" parent="1" source="cYqk6q7CBLfKZrdG0vhf-38" target="cYqk6q7CBLfKZrdG0vhf-1">
          <mxGeometry relative="1" as="geometry" />
        </mxCell>
        <mxCell id="cYqk6q7CBLfKZrdG0vhf-38" value="user" style="shape=umlActor;verticalLabelPosition=bottom;verticalAlign=top;html=1;outlineConnect=0;" vertex="1" parent="1">
          <mxGeometry x="40" y="330" width="30" height="60" as="geometry" />
        </mxCell>
        <mxCell id="cYqk6q7CBLfKZrdG0vhf-40" value="database" style="strokeWidth=2;html=1;shape=mxgraph.flowchart.database;whiteSpace=wrap;" vertex="1" parent="1">
          <mxGeometry x="760" y="330" width="60" height="60" as="geometry" />
        </mxCell>
        <mxCell id="cYqk6q7CBLfKZrdG0vhf-41" style="edgeStyle=orthogonalEdgeStyle;rounded=0;orthogonalLoop=1;jettySize=auto;html=1;exitX=1;exitY=0.5;exitDx=0;exitDy=0;entryX=0;entryY=0.5;entryDx=0;entryDy=0;entryPerimeter=0;startArrow=classic;startFill=1;" edge="1" parent="1" source="cYqk6q7CBLfKZrdG0vhf-5" target="cYqk6q7CBLfKZrdG0vhf-40">
          <mxGeometry relative="1" as="geometry" />
        </mxCell>
      </root>
    </mxGraphModel>
  </diagram>
</mxfile>
